Coordinates
version=1
nRows=9
nColumns=24
inDegrees=yes

Units are S.I. units (second, meters, Newtons, ...)
Angles are in degrees.

endheader
time	pelvis_tilt	pelvis_list	pelvis_rotation	pelvis_tx	pelvis_ty	pelvis_tz	hip_flexion_r	hip_adduction_r	hip_rotation_r	knee_angle_r	ankle_angle_r	subtalar_angle_r	mtp_angle_r	hip_flexion_l	hip_adduction_l	hip_rotation_l	knee_angle_l	ankle_angle_l	subtalar_angle_l	mtp_angle_l	lumbar_extension	lumbar_bending	lumbar_rotation
      5.83500000	     15.43700434	     -3.50958839	     14.12432910	      2.45246245	      0.75073579	     -0.25375484	     -5.12989125	      9.81892128	     -7.50960700	    -19.60783426	     27.52304142	      5.10860865	      0.00000000	     11.47259669	     -2.55306368	      8.35228793	    -73.22065566	     17.57028772	      5.12660445	      0.00000000	    -32.26771150	      8.20825315	      2.74882917
      5.84000000	     15.47943592	     -3.45968030	     13.80280186	      2.46023936	      0.75138254	     -0.25360127	     -6.18803572	      9.91749640	     -7.12014196	    -18.94991344	     27.76699641	      5.37244555	      0.00000000	     12.28262944	     -2.29510767	      7.93935619	    -72.33529280	     18.03620122	      4.69060692	      0.00000000	    -32.42475289	      8.03793591	      3.21833775
      5.84500000	     15.52989680	     -3.38483625	     13.46939189	      2.46802067	      0.75197848	     -0.25344720	     -7.26829065	      9.97157604	     -6.74386133	    -18.28155251	     28.00107959	      5.68161094	      0.00000000	     13.03619021	     -2.03623142	      7.49396973	    -71.32929615	     18.37971554	      4.15321331	      0.00000000	    -32.59511992	      7.83699763	      3.70504237
      5.85000000	     15.57552357	     -3.30697331	     13.11631266	      2.47584145	      0.75250939	     -0.25332198	     -8.34985479	      9.99396122	     -6.41518304	    -17.61172868	     28.24322877	      6.03155993	      0.00000000	     13.73480531	     -1.79228537	      7.02095120	    -70.18785093	     18.64986163	      3.52984769	      0.00000000	    -32.75137195	      7.63908761	      4.18236833
      5.85500000	     15.59423405	     -3.27517659	     12.75442148	      2.48366312	      0.75290129	     -0.25317988	     -9.38528939	     10.03963305	     -6.11391140	    -16.95445213	     28.46678020	      6.40509796	      0.00000000	     14.43943582	     -1.61671101	      6.52837765	    -68.95564281	     18.86350054	      2.79354535	      0.00000000	    -32.87020148	      7.47029699	      4.72689218
      5.86000000	     15.62939134	     -3.20128891	     12.36738794	      2.49151390	      0.75326377	     -0.25304953	    -10.45578309	     10.02099568	     -5.82773165	    -16.29211850	     28.70550961	      6.82614725	      0.00000000	     15.04918491	     -1.42331891	      5.99644424	    -67.57853870	     18.98949557	      2.01796768	      0.00000000	    -33.00951303	      7.26219141	      5.24880980
      5.86500000	     15.63639743	     -3.20890391	     11.97602942	      2.49936150	      0.75347016	     -0.25290377	    -11.46797976	     10.06404970	     -5.58194478	    -15.64632570	     28.88938710	      7.24500823	      0.00000000	     15.67477820	     -1.33531313	      5.45509463	    -66.12249386	     19.09079018	      1.15262584	      0.00000000	    -33.10439931	      7.12202696	      5.84666462
      5.87000000	     15.64822995	     -3.18526906	     11.56310867	      2.50723693	      0.75362378	     -0.25278524	    -12.49958105	     10.05254498	     -5.33393497	    -14.99761847	     29.08353035	      7.69361565	      0.00000000	     16.21985925	     -1.23373228	      4.88184738	    -64.53062381	     19.13575941	      0.28042826	      0.00000000	    -33.20378529	      6.95437591	      6.44238756
      5.87500000	     15.66751562	     -3.16952414	     11.13783623	      2.51511518	      0.75370124	     -0.25266687	    -13.53682849	     10.03049640	     -5.11859323	    -14.35154038	     29.27286856	      8.17290613	      0.00000000	     16.70135456	     -1.15789693	      4.30143764	    -62.82429114	     19.15001617	     -0.58506958	      0.00000000	    -33.31078434	      6.79138348	      7.05414376
